<svg width="25" height="26" viewBox="0 0 25 26" fill="none" xmlns="http://www.w3.org/2000/svg">
<path d="M12.5 0.5C19.4037 0.5 25 6.09625 25 13C25 19.9037 19.4037 25.5 12.5 25.5C5.59625 25.5 0 19.9037 0 13C0 6.09625 5.59625 0.5 12.5 0.5ZM12.5 5.5C12.1685 5.5 11.8505 5.6317 11.6161 5.86612C11.3817 6.10054 11.25 6.41848 11.25 6.75V13C11.2501 13.3315 11.3818 13.6494 11.6163 13.8837L15.3663 17.6337C15.602 17.8614 15.9178 17.9874 16.2455 17.9846C16.5732 17.9817 16.8868 17.8503 17.1185 17.6185C17.3503 17.3868 17.4817 17.0732 17.4846 16.7455C17.4874 16.4178 17.3614 16.102 17.1337 15.8663L13.75 12.4825V6.75C13.75 6.41848 13.6183 6.10054 13.3839 5.86612C13.1495 5.6317 12.8315 5.5 12.5 5.5Z" fill="#23376C"/>
</svg>
