<svg width="31" height="30" viewBox="0 0 31 30" fill="none" xmlns="http://www.w3.org/2000/svg">
<path d="M15.5 10.9375C14.4226 10.9375 13.3892 11.3655 12.6274 12.1274C11.8655 12.8892 11.4375 13.9226 11.4375 15C11.4375 16.0774 11.8655 17.1108 12.6274 17.8726C13.3892 18.6345 14.4226 19.0625 15.5 19.0625C16.5774 19.0625 17.6108 18.6345 18.3726 17.8726C19.1345 17.1108 19.5625 16.0774 19.5625 15C19.5625 13.9226 19.1345 12.8892 18.3726 12.1274C17.6108 11.3655 16.5774 10.9375 15.5 10.9375Z" fill="#23376C"/>
<path fill-rule="evenodd" clip-rule="evenodd" d="M8.96252 3.85243C13.3075 3.3708 17.6925 3.3708 22.0375 3.85243C24.4113 4.11743 26.325 5.98618 26.6038 8.36868C27.119 12.7745 27.119 17.2254 26.6038 21.6312C26.325 24.0137 24.4113 25.8824 22.0388 26.1487C17.6933 26.6304 13.308 26.6304 8.96252 26.1487C6.58877 25.8824 4.67502 24.0137 4.39627 21.6324C3.88093 17.2262 3.88093 12.7749 4.39627 8.36868C4.67502 5.98618 6.58877 4.11743 8.96252 3.85243ZM21.75 7.49993C21.4185 7.49993 21.1006 7.63163 20.8661 7.86605C20.6317 8.10047 20.5 8.41841 20.5 8.74993C20.5 9.08145 20.6317 9.39939 20.8661 9.63381C21.1006 9.86823 21.4185 9.99993 21.75 9.99993C22.0815 9.99993 22.3995 9.86823 22.6339 9.63381C22.8683 9.39939 23 9.08145 23 8.74993C23 8.41841 22.8683 8.10047 22.6339 7.86605C22.3995 7.63163 22.0815 7.49993 21.75 7.49993ZM9.56252 14.9999C9.56252 13.4252 10.1881 11.915 11.3016 10.8015C12.4151 9.68799 13.9253 9.06243 15.5 9.06243C17.0747 9.06243 18.585 9.68799 19.6985 10.8015C20.812 11.915 21.4375 13.4252 21.4375 14.9999C21.4375 16.5747 20.812 18.0849 19.6985 19.1984C18.585 20.3119 17.0747 20.9374 15.5 20.9374C13.9253 20.9374 12.4151 20.3119 11.3016 19.1984C10.1881 18.0849 9.56252 16.5747 9.56252 14.9999Z" fill="#23376C"/>
</svg>
