<svg width="19" height="28" viewBox="0 0 19 28" fill="none" xmlns="http://www.w3.org/2000/svg">
<path d="M9.49996 13.3332C8.6159 13.3332 7.76806 12.982 7.14294 12.3569C6.51782 11.7317 6.16663 10.8839 6.16663 9.99984C6.16663 9.11578 6.51782 8.26794 7.14294 7.64281C7.76806 7.01769 8.6159 6.6665 9.49996 6.6665C10.384 6.6665 11.2319 7.01769 11.857 7.64281C12.4821 8.26794 12.8333 9.11578 12.8333 9.99984C12.8333 10.4376 12.7471 10.871 12.5796 11.2754C12.412 11.6799 12.1665 12.0473 11.857 12.3569C11.5475 12.6664 11.18 12.9119 10.7756 13.0794C10.3712 13.247 9.9377 13.3332 9.49996 13.3332ZM9.49996 0.666504C7.0246 0.666504 4.65064 1.64983 2.9003 3.40017C1.14996 5.15051 0.166626 7.52448 0.166626 9.99984C0.166626 16.9998 9.49996 27.3332 9.49996 27.3332C9.49996 27.3332 18.8333 16.9998 18.8333 9.99984C18.8333 7.52448 17.85 5.15051 16.0996 3.40017C14.3493 1.64983 11.9753 0.666504 9.49996 0.666504Z" fill="#23376C"/>
</svg>
