<svg width="23" height="24" viewBox="0 0 23 24" fill="none" xmlns="http://www.w3.org/2000/svg">
<path d="M4.775 10.4875C6.575 14.025 9.475 16.9125 13.0125 18.725L15.7625 15.975C16.1 15.6375 16.6 15.525 17.0375 15.675C18.4375 16.1375 19.95 16.3875 21.5 16.3875C22.1875 16.3875 22.75 16.95 22.75 17.6375V22C22.75 22.6875 22.1875 23.25 21.5 23.25C9.7625 23.25 0.25 13.7375 0.25 2C0.25 1.3125 0.8125 0.75 1.5 0.75H5.875C6.5625 0.75 7.125 1.3125 7.125 2C7.125 3.5625 7.375 5.0625 7.8375 6.4625C7.975 6.9 7.875 7.3875 7.525 7.7375L4.775 10.4875Z" fill="#23376C"/>
</svg>
