<svg width="31" height="30" viewBox="0 0 31 30" fill="none" xmlns="http://www.w3.org/2000/svg">
<path d="M19.3412 2.5H11.6713C4.66625 2.5 3 4.16625 3 11.1588V18.8288C3 25.8325 4.65375 27.5 11.6588 27.5H19.3288C26.3325 27.5 28 25.8463 28 18.8412V11.1713C28 4.16625 26.3463 2.5 19.3412 2.5ZM23.1825 20.3375H21.3587C20.6688 20.3375 20.4613 19.7787 19.2238 18.5413C18.1438 17.5 17.6875 17.37 17.4137 17.37C17.0363 17.37 16.9325 17.4738 16.9325 17.995V19.635C16.9325 20.0788 16.7887 20.3387 15.63 20.3387C14.5054 20.2632 13.4149 19.9215 12.4482 19.3419C11.4816 18.7623 10.6665 17.9613 10.07 17.005C8.65396 15.2425 7.66868 13.1739 7.1925 10.9637C7.1925 10.69 7.29625 10.4425 7.8175 10.4425H9.64C10.1087 10.4425 10.2775 10.6512 10.4612 11.1325C11.3462 13.7375 12.8562 16.0025 13.4688 16.0025C13.7037 16.0025 13.8063 15.8988 13.8063 15.3125V12.63C13.7288 11.4062 13.0787 11.3025 13.0787 10.86C13.0871 10.7433 13.1406 10.6344 13.2279 10.5565C13.3151 10.4785 13.4293 10.4377 13.5463 10.4425H16.4113C16.8025 10.4425 16.9325 10.6375 16.9325 11.1063V14.7262C16.9325 15.1175 17.1012 15.2475 17.2188 15.2475C17.4537 15.2475 17.635 15.1175 18.065 14.6875C18.9886 13.5612 19.7432 12.3063 20.305 10.9625C20.3624 10.8011 20.4711 10.6629 20.6144 10.569C20.7577 10.4751 20.9278 10.4307 21.0988 10.4425H22.9225C23.4688 10.4425 23.585 10.7163 23.4688 11.1063C22.8056 12.5918 21.9851 14.0019 21.0212 15.3125C20.825 15.6125 20.7463 15.7688 21.0212 16.12C21.2025 16.3938 21.8412 16.9275 22.2712 17.435C22.8961 18.0583 23.415 18.7795 23.8075 19.57C23.9637 20.0775 23.7025 20.3375 23.1825 20.3375Z" fill="#23376C"/>
</svg>
