<svg width="31" height="30" viewBox="0 0 31 30" fill="none" xmlns="http://www.w3.org/2000/svg">
<g clip-path="url(#clip0_2_589)">
<path d="M13.7 20.2857L20.966 16L13.7 11.7143V20.2857ZM29.884 9.1C30.066 9.77143 30.192 10.6714 30.276 11.8143C30.374 12.9571 30.416 13.9429 30.416 14.8L30.5 16C30.5 19.1286 30.276 21.4286 29.884 22.9C29.534 24.1857 28.722 25.0143 27.462 25.3714C26.804 25.5571 25.6 25.6857 23.752 25.7714C21.932 25.8714 20.266 25.9143 18.726 25.9143L16.5 26C10.634 26 6.98 25.7714 5.538 25.3714C4.278 25.0143 3.466 24.1857 3.116 22.9C2.934 22.2286 2.808 21.3286 2.724 20.1857C2.626 19.0429 2.584 18.0571 2.584 17.2L2.5 16C2.5 12.8714 2.724 10.5714 3.116 9.1C3.466 7.81429 4.278 6.98571 5.538 6.62857C6.196 6.44286 7.4 6.31429 9.248 6.22857C11.068 6.12857 12.734 6.08571 14.274 6.08571L16.5 6C22.366 6 26.02 6.22857 27.462 6.62857C28.722 6.98571 29.534 7.81429 29.884 9.1Z" fill="#23376C"/>
</g>
<defs>
<clipPath id="clip0_2_589">
<rect width="30" height="30" fill="white" transform="translate(0.5)"/>
</clipPath>
</defs>
</svg>
