<svg width="31" height="30" viewBox="0 0 31 30" fill="none" xmlns="http://www.w3.org/2000/svg">
<path d="M15.5 2.5C8.6 2.5 3 8.1 3 15C3 21.9 8.6 27.5 15.5 27.5C22.4 27.5 28 21.9 28 15C28 8.1 22.4 2.5 15.5 2.5ZM21.3 11C21.1125 12.975 20.3 17.775 19.8875 19.9875C19.7125 20.925 19.3625 21.2375 19.0375 21.275C18.3125 21.3375 17.7625 20.8 17.0625 20.3375C15.9625 19.6125 15.3375 19.1625 14.275 18.4625C13.0375 17.65 13.8375 17.2 14.55 16.475C14.7375 16.2875 17.9375 13.375 18 13.1125C18.0087 13.0727 18.0075 13.0315 17.9966 12.9923C17.9857 12.953 17.9654 12.9171 17.9375 12.8875C17.8625 12.825 17.7625 12.85 17.675 12.8625C17.5625 12.8875 15.8125 14.05 12.4 16.35C11.9 16.6875 11.45 16.8625 11.05 16.85C10.6 16.8375 9.75 16.6 9.1125 16.3875C8.325 16.1375 7.7125 16 7.7625 15.5625C7.7875 15.3375 8.1 15.1125 8.6875 14.875C12.3375 13.2875 14.7625 12.2375 15.975 11.7375C19.45 10.2875 20.1625 10.0375 20.6375 10.0375C20.7375 10.0375 20.975 10.0625 21.125 10.1875C21.25 10.2875 21.2875 10.425 21.3 10.525C21.2875 10.6 21.3125 10.825 21.3 11Z" fill="#23376C"/>
</svg>
