<svg width="774" height="133" viewBox="0 0 774 133" fill="none" xmlns="http://www.w3.org/2000/svg">
<path fill-rule="evenodd" clip-rule="evenodd" d="M96.876 86.2138L117.546 117.568H173.358L120.828 37.8751L58.3492 132.668C39.0671 132.668 19.7833 132.668 0.5 132.668L63.9969 36.3339L79.8177 60.335L42.0803 117.568H50.0016L127.498 0L214.946 132.668C175.252 132.668 135.556 132.668 95.8616 132.668L81.0601 110.212L96.876 86.2138Z" fill="white"/>
<path fill-rule="evenodd" clip-rule="evenodd" d="M343.979 13.668H314.896L287.79 94.8572L261.996 13.668H231.337L267.524 119.215H305.816L343.979 13.668ZM380.561 119.215V13.668H350.561V119.215H380.561ZM452.542 119.215C477.676 119.215 488.338 108.346 488.338 86.3442C488.338 64.0835 477.676 54.3918 452.542 54.3918H421.75V38.1563H481.493V13.668H428.2C403.066 13.668 392.405 24.1438 392.405 46.1455C392.405 68.0117 403.066 78.2275 428.2 78.2275H459.123V94.8572H395.831V119.215H452.542ZM530.051 119.215V13.668H500.05V119.215H530.051ZM650.065 13.668H622.036V94.4638L591.245 13.668H544.003V119.215H572.032V38.4157L602.954 119.215H650.065V13.668ZM773.5 119.215L735.602 13.668H694.678L656.776 119.215H684.413L691.779 98.918H737.576L744.812 119.215H773.5ZM729.151 75.6073H700.072L714.545 35.1456L729.151 75.6073Z" fill="white"/>
</svg>
