<svg width="207" height="418" viewBox="0 0 207 418" fill="none" xmlns="http://www.w3.org/2000/svg">
<path fill-rule="evenodd" clip-rule="evenodd" d="M10.3767 417.006L48.1347 399.558L48.0266 417.006H10.3767Z" fill="#FEFEFE"/>
<path fill-rule="evenodd" clip-rule="evenodd" d="M99.6589 403.324L99.5776 417.006H70.0425L99.6589 403.324Z" fill="#FEFEFE"/>
<path fill-rule="evenodd" clip-rule="evenodd" d="M127.166 385.317L58.5201 417.006H52.1105L52.2187 397.881L96.8462 377.285L92.1939 373.931L0.55835 416.24L1.2882 294.049C24.6032 310.937 47.8907 327.855 71.1789 344.743L71.07 365.428L52.3805 374.048L52.543 345.184L19.7892 321.441L19.356 394.821L93.222 360.691C104.528 368.899 115.833 377.109 127.166 385.317Z" fill="#FEFEFE"/>
<path fill-rule="evenodd" clip-rule="evenodd" d="M76.433 299.528L76.2636 328.403L109.023 352.155L109.458 278.767L35.593 312.878C24.2751 304.672 12.9565 296.465 1.63782 288.258L76.706 253.594L76.5749 275.696L31.968 296.285L36.6173 299.656L128.234 257.352L127.509 379.525C104.21 362.631 80.9105 345.737 57.6108 328.843L57.7335 308.165L76.433 299.528Z" fill="#FEFEFE"/>
<path fill-rule="evenodd" clip-rule="evenodd" d="M80.9392 228.078L81.1094 199.204L48.3495 175.451L47.9148 248.84L121.78 214.728C133.098 222.935 144.417 231.142 155.735 239.349L80.667 274.013L80.7982 251.911L125.405 231.322L120.755 227.951L29.1385 270.255L29.8638 148.082C53.1628 164.976 76.4625 181.87 99.7622 198.763L99.6388 219.442L80.9392 228.078Z" fill="#FEFEFE"/>
<path fill-rule="evenodd" clip-rule="evenodd" d="M105.004 153.552L104.834 182.426L137.594 206.179L138.029 132.791L64.163 166.902C52.8452 158.696 41.5265 150.489 30.2079 142.281L105.276 107.618L105.145 129.72L60.5389 150.309L65.1881 153.68L156.805 111.376L156.079 233.549C132.78 216.655 109.481 199.761 86.1816 182.867L86.3043 162.189L105.004 153.552Z" fill="#FEFEFE"/>
<path fill-rule="evenodd" clip-rule="evenodd" d="M109.51 82.1024L109.68 53.2284L76.9201 29.4747L76.4846 102.863L150.35 68.7523C161.668 76.9591 172.987 85.1657 184.306 93.3725L109.238 128.037L109.369 105.935L153.975 85.346L149.326 81.9749L57.7084 124.278L58.4337 2.10596C81.7334 19 105.033 35.8941 128.332 52.7873L128.209 73.466L109.51 82.1024Z" fill="#FEFEFE"/>
<path fill-rule="evenodd" clip-rule="evenodd" d="M138.039 0L92.7351 20.919C83.1062 13.9458 73.5042 6.97245 63.903 0H98.496L89.1102 4.32455L93.7625 7.70821L110.451 0H138.039Z" fill="#FEFEFE"/>
<path fill-rule="evenodd" clip-rule="evenodd" d="M185.155 0L184.641 87.561C161.354 70.6729 138.039 53.784 114.751 36.8958L114.886 16.212L133.576 7.56128L133.414 36.4547L166.168 60.1983L166.52 0H185.155Z" fill="#FEFEFE"/>
<path fill-rule="evenodd" clip-rule="evenodd" d="M206.999 381.963V394.703L158.747 417.006H124.506C117.636 412.003 110.766 407.031 103.869 402.058L178.952 367.37L178.817 389.496L134.188 410.062L138.841 413.445L206.999 381.963Z" fill="#FEFEFE"/>
<path fill-rule="evenodd" clip-rule="evenodd" d="M206.999 336.358V349.128L131.375 384.052L132.106 261.861C155.393 278.749 178.708 295.667 201.996 312.556L201.86 333.24L183.171 341.86L183.333 312.997L150.579 289.223L150.146 362.632L206.999 336.358Z" fill="#FEFEFE"/>
<path fill-rule="evenodd" clip-rule="evenodd" d="M206.999 354.63V376.667L182.901 387.789L183.036 365.692L206.999 354.63Z" fill="#FEFEFE"/>
<path fill-rule="evenodd" clip-rule="evenodd" d="M207 243.677L162.778 264.097L167.43 267.48L207 249.208V261.949L166.402 280.691C155.07 272.482 143.764 264.273 132.431 256.064L207 221.64V243.677Z" fill="#FEFEFE"/>
<path fill-rule="evenodd" clip-rule="evenodd" d="M207 310.143C200.806 305.641 194.613 301.169 188.418 296.668L188.527 275.983L207 267.451V310.143Z" fill="#FEFEFE"/>
<path fill-rule="evenodd" clip-rule="evenodd" d="M179.142 143.258L178.709 216.638L207 203.574V216.314L159.938 238.057L160.668 115.895C176.086 127.106 191.556 138.286 207 149.496V163.442L179.142 143.258Z" fill="#FEFEFE"/>
<path fill-rule="evenodd" clip-rule="evenodd" d="M206.999 110.893L191.339 118.132L195.991 121.486L206.999 116.395V129.165L194.963 134.726C183.658 126.517 172.325 118.308 161.019 110.099L206.999 88.8557V110.893Z" fill="#FEFEFE"/>
<path fill-rule="evenodd" clip-rule="evenodd" d="M206.999 0V83.5603L188.499 92.0923L189.04 0H206.999Z" fill="#FEFEFE"/>
</svg>
