<svg width="39" height="41" viewBox="0 0 39 41" fill="none" xmlns="http://www.w3.org/2000/svg">
<path d="M4.10527 41C2.97632 41 2.00953 40.5982 1.2049 39.7946C0.400266 38.991 -0.00136494 38.0261 3.48494e-06 36.9V4.1C3.48494e-06 2.9725 0.402319 2.00695 1.20695 1.20335C2.01158 0.399753 2.97769 -0.00136319 4.10527 3.48048e-06H20.5263L32.8421 12.3V18.655L16.4211 35.0037V41H4.10527ZM20.5263 41V36.6437L31.0974 26.035L35.5105 30.34L24.8882 41H20.5263ZM36.9987 28.905L32.6368 24.5488L34.0737 23.1138C34.4842 22.7038 34.9803 22.4988 35.5618 22.4988C36.1434 22.4988 36.6224 22.7038 36.9987 23.1138L38.4355 24.6C38.8118 25.01 39 25.4972 39 26.0617C39 26.6261 38.8118 27.0955 38.4355 27.47L36.9987 28.905ZM18.4737 14.35H28.7368L18.4737 4.1V14.35Z" fill="#A5BDE3"/>
</svg>
