<svg width="170" height="34" viewBox="0 0 170 34" fill="none" xmlns="http://www.w3.org/2000/svg">
<path fill-rule="evenodd" clip-rule="evenodd" d="M36.0485 0.819885H26.9784L18.525 26.1902L10.481 0.819885H0.919464L12.2048 33.8016H24.1469L36.0485 0.819885ZM47.4571 33.8016V0.819885H38.1009V33.8016H47.4571ZM69.9051 33.8016C77.7434 33.8016 81.0685 30.4052 81.0685 23.53C81.0685 16.5739 77.7434 13.5454 69.9051 13.5454H60.3022V8.47208H78.9339V0.819885H62.3137C54.4754 0.819885 51.1506 4.09341 51.1506 10.9686C51.1506 17.8014 54.4754 20.9937 62.3137 20.9937H71.9576V26.1902H52.2189V33.8016H69.9051ZM94.0772 33.8016V0.819885H84.7212V33.8016H94.0772ZM131.505 0.819885H122.764V26.0672L113.161 0.819885H98.4284V33.8016H107.17V8.55315L116.813 33.8016H131.505V0.819885ZM170 33.8016L158.181 0.819885H145.418L133.598 33.8016H142.217L144.514 27.4591H158.797L161.053 33.8016H170ZM156.169 20.1749H147.1L151.614 7.5313L156.169 20.1749Z" fill="white"/>
</svg>
