<svg width="31" height="30" viewBox="0 0 31 30" fill="none" xmlns="http://www.w3.org/2000/svg">
<path d="M15.5012 2.5C22.405 2.5 28.0012 8.09625 28.0012 15C28.0012 21.9037 22.405 27.5 15.5012 27.5C13.2922 27.5036 11.1221 26.919 9.21374 25.8063L3.00624 27.5L4.69624 21.29C3.5826 19.3811 2.99755 17.21 3.00124 15C3.00124 8.09625 8.59749 2.5 15.5012 2.5ZM11.2412 9.125L10.9912 9.135C10.8294 9.14486 10.6712 9.18738 10.5262 9.26C10.3906 9.33679 10.2669 9.43278 10.1587 9.545C10.0087 9.68625 9.92374 9.80875 9.83249 9.9275C9.37014 10.5286 9.1212 11.2666 9.12499 12.025C9.12749 12.6375 9.28749 13.2338 9.53749 13.7913C10.0487 14.9187 10.89 16.1125 12 17.2188C12.2675 17.485 12.53 17.7525 12.8125 18.0013C14.1917 19.2156 15.8353 20.0913 17.6125 20.5588L18.3225 20.6675C18.5537 20.68 18.785 20.6625 19.0175 20.6512C19.3815 20.6325 19.737 20.5339 20.0587 20.3625C20.2224 20.2782 20.3822 20.1864 20.5375 20.0875C20.5375 20.0875 20.5912 20.0525 20.6937 19.975C20.8625 19.85 20.9662 19.7612 21.1062 19.615C21.21 19.5075 21.3 19.3813 21.3687 19.2375C21.4662 19.0338 21.5637 18.645 21.6037 18.3212C21.6337 18.0737 21.625 17.9388 21.6212 17.855C21.6162 17.7213 21.505 17.5825 21.3837 17.5238L20.6562 17.1975C20.6562 17.1975 19.5687 16.7238 18.9037 16.4213C18.8342 16.3909 18.7596 16.3735 18.6837 16.37C18.5982 16.3612 18.5118 16.3708 18.4303 16.3982C18.3488 16.4256 18.2741 16.4701 18.2112 16.5287C18.205 16.5262 18.1212 16.5975 17.2175 17.6925C17.1656 17.7622 17.0942 17.8149 17.0122 17.8438C16.9303 17.8728 16.8416 17.8767 16.7575 17.855C16.6761 17.8332 16.5963 17.8056 16.5187 17.7725C16.3637 17.7075 16.31 17.6825 16.2037 17.6375C15.4863 17.3244 14.8221 16.9014 14.235 16.3838C14.0775 16.2463 13.9312 16.0962 13.7812 15.9513C13.2895 15.4803 12.8609 14.9475 12.5062 14.3663L12.4325 14.2475C12.3795 14.1677 12.3367 14.0816 12.305 13.9913C12.2575 13.8075 12.3812 13.66 12.3812 13.66C12.3812 13.66 12.685 13.3275 12.8262 13.1475C12.9637 12.9725 13.08 12.8025 13.155 12.6813C13.3025 12.4438 13.3487 12.2 13.2712 12.0113C12.9212 11.1562 12.5587 10.305 12.1862 9.46C12.1125 9.2925 11.8937 9.1725 11.695 9.14875C11.6275 9.14125 11.56 9.13375 11.4925 9.12875C11.3246 9.12041 11.1564 9.12208 10.9887 9.13375L11.24 9.12375L11.2412 9.125Z" fill="#23376C"/>
</svg>
